<?xml version="1.0" ?><svg height="64" id="svg8" version="1.1" viewBox="0 0 16.933333 16.933334" width="64" xmlns="http://www.w3.org/2000/svg" xmlns:cc="http://creativecommons.org/ns#" xmlns:dc="http://purl.org/dc/elements/1.1/" xmlns:inkscape="http://www.inkscape.org/namespaces/inkscape" xmlns:rdf="http://www.w3.org/1999/02/22-rdf-syntax-ns#" xmlns:sodipodi="http://sodipodi.sourceforge.net/DTD/sodipodi-0.dtd" xmlns:svg="http://www.w3.org/2000/svg"><defs id="defs2"/><g id="layer1"><path d="M 8.8422764,1.1528527e-4 C 8.1461365,0.0128614 7.3897317,0.13659034 6.7752373,0.32825841 5.4300736,0.75458672 4.8798296,1.702533 4.7800278,2.7461822 c -0.093301,0.975686 0.1912828,1.968261 0.44338,2.6411646 -0.027423,0.0442 -0.052095,0.090098 -0.074413,0.137975 C 4.9320475,5.9906962 5.0045449,6.5422122 5.334511,6.9355624 5.6365294,7.2955951 6.1094872,7.4669323 6.566983,7.3913453 6.7556417,7.9022036 7.0937677,8.583491 7.6718155,9.1121588 l -0.00207,0.4128919 C 7.6278348,9.525818 7.587619,9.5354064 7.552444,9.5529559 L 6.49412,10.082119 c -0.1182529,0.05927 -0.1684868,0.192436 -0.1333239,0.31109 l -1.6655168,0.671789 c -0.035119,-0.08063 -0.083465,-0.154337 -0.1421091,-0.21859 0.1271772,-0.140896 0.2072209,-0.325229 0.2072209,-0.528129 0,-0.3637593 -0.2498724,-0.6734924 -0.5860056,-0.7653231 0.03656,-0.090998 0.056841,-0.1897098 0.056844,-0.2930034 0,-0.3416825 -0.2218043,-0.6330259 -0.5270951,-0.7436189 V 4.2323865 c 0,-0.4351438 -0.3597516,-0.7927112 -0.7947765,-0.7927112 -0.435027,0 -0.7927095,0.3575613 -0.7927095,0.7927112 H 0.79322625 C 0.35819981,4.2323865 0,4.592532 0,5.0276813 0,5.4628317 0.35819981,5.8203924 0.79322625,5.8203924 H 1.058324 V 6.3495555 H 0.79322625 C 0.35819981,6.3495555 0,6.7076336 0,7.1427834 0,7.577933 0.35819981,7.9375615 0.79322625,7.9375615 H 2.116648 v 0.5291631 c -0.7280945,0 -1.32342175,0.5940911 -1.32342175,1.3223909 v 2.1171695 c 0,0.556389 0.34734805,1.034214 0.83611725,1.228857 -0.5068475,0.387448 -0.83611725,0.996329 -0.83611725,1.681023 -1.01e-6,1.165837 0.95062955,2.117433 2.12956695,2.117169 H 15.197388 c 0.475282,0 0.937445,-0.194008 1.272779,-0.51211 0.335334,-0.318105 0.545886,-0.789543 0.432011,-1.288802 L 16.39317,12.910868 c -0.184988,-0.895523 -0.831612,-1.3569 -1.606089,-1.669138 l -2.103729,-0.849038 c 0.03499,-0.118131 -0.01488,-0.250836 -0.132291,-0.310573 L 11.493254,9.5529559 c -0.03775,-0.019071 -0.07875,-0.027349 -0.119372,-0.027388 V 9.1085414 C 11.932069,8.5686919 12.274619,7.8907491 12.46838,7.387728 12.890305,7.461539 13.329819,7.326422 13.638324,7.013593 14.012289,6.6343868 14.121284,6.0658355 13.915824,5.5744142 13.780991,5.2519192 13.526927,5.0027188 13.217681,4.8695525 13.327187,4.4979993 13.435909,4.0368692 13.475028,3.5569799 13.519306,3.0138176 13.478922,2.4407973 13.209413,1.9612226 12.939948,1.4818795 12.424241,1.1283873 11.663785,1.0589582 11.633528,1.0205831 11.601804,0.98333034 11.569218,0.94733786 11.195648,0.53469308 10.687287,0.28319928 10.135726,0.14480831 9.7220572,0.04101511 9.2818825,-0.0025546 8.8422764,1.1528527e-4 Z M 10.578589,4.0923443 c 0.245764,-0.00589 0.503297,0.00941 0.740517,0.062011 0.316293,0.070132 0.591816,0.2006853 0.786508,0.4123752 0.194693,0.2116887 0.326074,0.5122467 0.326076,0.9901136 -0.0013,0.2883983 0.394375,0.3704906 0.507975,0.1054193 0,0 0.04771,-0.1114087 0.112136,-0.2868024 0.166126,0.083514 0.301271,0.2248766 0.376201,0.404107 0.123739,0.2959577 0.05935,0.6346118 -0.165879,0.8629906 -0.166909,0.1692465 -0.396265,0.2517867 -0.624763,0.2346095 0.03565,-0.1285869 0.05219,-0.2072213 0.05219,-0.2072213 0.03081,-0.1429344 -0.06017,-0.2835097 -0.203087,-0.3141906 -0.142897,-0.030816 -0.283517,0.060126 -0.31419,0.203087 0,0 -0.312678,1.4039456 -1.239707,2.2401582 -0.434471,0.3919106 -0.907857,0.4609508 -1.4097199,0.4609508 -0.496871,0 -0.9624409,-0.081998 -1.4174721,-0.4671518 C 7.1604342,7.9929834 6.8729077,6.564528 6.8729048,6.564528 6.8458159,6.4211553 6.7077866,6.3268801 6.5643993,6.3536896 6.4201524,6.3807574 6.3255494,6.5201569 6.3535614,6.6642628 c 0,0 0.014443,0.080835 0.048058,0.2123886 C 6.1516972,6.8941852 5.9059816,6.7925838 5.7406843,6.5955335 5.5420597,6.3587518 5.4989875,6.0302506 5.629581,5.750113 5.7601739,5.4699751 6.0388655,5.2912294 6.3478771,5.2912294 6.4940076,5.2918114 6.6124721,5.1738538 6.6129748,5.0276813 6.6131412,4.9855813 6.5995024,4.9353667 6.5840363,4.9114101 6.556283,4.8236278 6.4902577,4.6028226 6.4346925,4.3254033 6.7967208,4.4898801 7.2957377,4.5118761 7.6640641,4.5042027 8.5135493,4.4832082 9.3704618,4.2837611 9.5910613,4.224635 9.9515201,4.139421 10.254389,4.0953674 10.578589,4.0923443 Z M 2.3801955,5.2090644 C 2.5263263,5.2084878 2.6453076,5.3264396 2.64581,5.4726124 V 6.5976007 C 2.6463921,6.7445366 2.5270897,6.8637978 2.3801955,6.8632157 2.234064,6.862713 2.1160712,6.7437733 2.116648,6.5976007 V 5.4726124 C 2.1171479,5.3272019 2.2348263,5.2095671 2.3801955,5.2090644 Z m -0.2635475,3.78734 h 0.2635475 1.058324 c 0.1511097,0 0.2656145,0.1123979 0.2656145,0.2635481 0,0.1511509 -0.1145048,0.265615 -0.2656145,0.265615 H 2.64581 C 2.5004409,9.5260702 2.3827624,9.6437052 2.3822625,9.7891155 2.3816857,9.9352886 2.4996785,10.054228 2.64581,10.054731 h 1.3218715 c 0.1511099,0 0.2635476,0.112397 0.2635476,0.263548 0,0.151151 -0.1124385,0.265615 -0.2635476,0.265615 -0.533069,-0.01243 -0.7911067,0 -1.3218715,0 -0.1453691,5.02e-4 -0.2630478,0.118138 -0.2635475,0.263548 5.001e-4,0.145409 0.1181784,0.263566 0.2635475,0.264065 h 1.3218715 c 0.1511038,0.0014 0.2635476,0.114464 0.2635476,0.265615 0,0.151149 -0.1124438,0.264909 -0.2635476,0.263548 -0.5331976,-0.01253 -0.791081,0 -1.3218715,0 -0.1461313,5.02e-4 -0.2641237,0.119443 -0.2635475,0.265615 5.001e-4,0.14541 0.1181784,0.263048 0.2635475,0.263548 h 0.7927095 c 0.1511097,0 0.2656145,0.114463 0.2656145,0.265615 0,0.15115 -0.1145048,0.263548 -0.2656145,0.263548 H 2.9093575 2.116648 c -0.4441798,0 -0.7947766,-0.348412 -0.7947765,-0.792711 V 9.7891155 c 0,-0.4443012 0.3505967,-0.7927111 0.7947765,-0.7927111 z M 8.1983936,9.491978 c 0.4431944,0.2342153 0.9034047,0.2971375 1.3244555,0.2971375 0.4145693,0 0.8993569,-0.051205 1.3218709,-0.2883526 V 9.8857497 L 9.6918293,10.847442 H 9.3538686 L 8.1983936,9.885233 Z M 7.6346088,10.103306 8.888268,11.148713 8.2025277,12.003952 7.0134634,10.413879 Z m 3.7764802,0 0.618562,0.310573 -1.186998,1.590073 -0.68729,-0.855239 z m -4.7392036,0.735868 1.3125696,1.754402 c 0.1033401,0.138418 0.3091145,0.142067 0.4175419,0.0078 l 0.2061872,-0.25683 0.2749163,0.206704 -0.643366,3.852452 H 4.3071927 C 4.747465,16.015218 5.0260058,15.4471 5.0260055,14.816213 c 0,-0.770246 -0.4162007,-1.444903 -1.0340362,-1.815381 0.1473089,-0.1443 0.2392579,-0.344755 0.2392598,-0.565337 0,-0.102917 -0.021074,-0.201263 -0.05736,-0.29197 0.256261,-0.06882 0.4625061,-0.26605 0.5462151,-0.517277 z m 5.6998606,5.29e-4 2.218449,0.894513 c 0.715528,0.288472 1.142034,0.577095 1.286215,1.2857 l 0.507975,2.231891 c 0.06796,0.297914 -0.04467,0.564088 -0.2775,0.784959 -0.232833,0.220831 -0.583719,0.3669 -0.909497,0.3669 h -4.393492 l -0.641815,-3.853485 0.274399,-0.205671 0.206704,0.257347 c 0.108436,0.13446 0.314719,0.130242 0.418059,-0.0083 z M 9.3843573,11.377122 H 9.6613406 L 10.105237,11.931089 9.5228491,12.369302 8.9389104,11.932123 Z M 9.686145,12.907767 10.2675,16.403654 H 8.7776813 l 0.5813548,-3.494337 0.00362,0.0026 c 0.094222,0.07098 0.2241017,0.07098 0.318324,0 z m 2.47993,0.586524 c -0.145362,5.02e-4 -0.263034,0.118141 -0.263547,0.263548 v 1.058326 c 5.02e-4,0.145404 0.118185,0.263549 0.263547,0.264065 h 2.646327 c 0.145362,-5.03e-4 0.263032,-0.118661 0.263547,-0.264065 v -1.058326 c -5.02e-4,-0.145407 -0.118185,-0.263033 -0.263547,-0.263548 z m -9.2567175,0.792711 c 0.2952904,0 0.5291618,0.233787 0.529162,0.529163 0,0.295377 -0.2338716,0.52968 -0.529162,0.52968 -0.2952935,0 -0.5291622,-0.234303 -0.529162,-0.52968 -2e-7,-0.295376 0.2338685,-0.529163 0.529162,-0.529163 z" id="path850" style="opacity:1;fill:#000000;fill-opacity:1;stroke:none;stroke-width:0.52916676;stroke-linecap:round;stroke-linejoin:round;stroke-miterlimit:4;stroke-dasharray:none;stroke-dashoffset:0;stroke-opacity:1"/></g></svg>