<?xml version="1.0" ?><svg height="64" id="svg8" version="1.1" viewBox="0 0 16.933333 16.933334" width="64" xmlns="http://www.w3.org/2000/svg" xmlns:cc="http://creativecommons.org/ns#" xmlns:dc="http://purl.org/dc/elements/1.1/" xmlns:inkscape="http://www.inkscape.org/namespaces/inkscape" xmlns:rdf="http://www.w3.org/1999/02/22-rdf-syntax-ns#" xmlns:sodipodi="http://sodipodi.sourceforge.net/DTD/sodipodi-0.dtd" xmlns:svg="http://www.w3.org/2000/svg"><defs id="defs2"/><g id="layer1"><path d="m 3.7043297,0.5292066 c -0.1541581,0.0029 -0.2645759,0.116933 -0.2645759,0.2635491 v 0.529167 c 0,0.176334 0.1323279,0.2648739 0.2645759,0.2650999 0.132247,-2.26e-4 0.264576,-0.08877 0.264576,-0.2650999 v -0.529167 c 0,-0.1466161 -0.1104191,-0.2606791 -0.264576,-0.2635491 z m -1.620527,0.8712641 0.37516,0.3731039 c 0.26105,0.242767 0.616542,-0.123014 0.37516,-0.3731039 l -0.37516,-0.375171 c -0.04981,-0.05121 -0.114078,-0.07699 -0.185514,-0.076999 -0.239176,-0.001799 -0.354756,0.2883829 -0.189646,0.45217 z M 4.9496968,1.0253016 4.5745356,1.4004727 c -0.241382,0.2500909 0.11411,0.6158709 0.3751612,0.3731039 L 5.3248566,1.4004727 c 0.165113,-0.163787 0.04953,-0.4540181 -0.1896469,-0.45217005 -0.07144,2.95e-6 -0.1357051,0.0257889 -0.1855129,0.0769989 z m 7.8742342,1.386994 -0.08113,1.8474321 -0.637402,-1.27359 c -0.124785,-0.230081 -0.319001,-0.379185 -0.53302,-0.447283 -0.214018,-0.0681 -0.447356,-0.05456 -0.650587,0.02584 -0.0861,0.03406 -0.16248,0.08199 -0.233054,0.136426 -0.385668,-0.514681 -0.998671,-0.849563 -1.6923744,-0.849563 -0.7452868,0.0011 -1.453942,0.401475 -1.8313609,1.058334 h -5.047609 c -0.0701,-4.5e-4 -0.1376501,0.02725 -0.18758,0.07648 l -0.7927011,0.784965 c -0.10439,0.1028851 -0.10539,0.2712059 -0.002,0.375171 l 0.7927,0.802535 c 0.10364,0.105175 0.2735861,0.105175 0.377225,0 l 0.3415751,-0.3436491 0.34984,0.345716 c 0.104503,0.1027901 0.272307,0.1013301 0.3746439,-0.0036 L 3.7075005,4.6095447 4.0470054,4.9490585 c 0.1031981,0.1025602 0.269894,0.1025602 0.3730929,0 l 0.3415713,-0.3436448 0.344156,0.343648 c 0.04914,0.04947 0.115788,0.07797 0.1855128,0.07855 h 1.873218 c 0.08133,0.135009 0.1736122,0.2527819 0.270777,0.361736 -0.326086,0.1623139 -0.5565399,0.5156639 -0.5565399,0.9622139 v 1.588017 c 0,0.9927032 -0.497562,1.9820967 -0.524501,3.1755174 -0.010721,-1.92e-4 -0.021341,-0.0027 -0.03204,-0.0016 -0.08975,0.0094 -0.1683081,0.06352 -0.2087671,0.144178 l -2.3806666,4.763531 c -0.08776,0.175769 0.0397,0.382616 0.2361549,0.382922 H 11.64271 c 0.10924,-4.23e-4 0.206883,-0.068 0.245973,-0.170015 l 1.322363,-3.439067 c 0.05815,-0.152877 -0.03496,-0.321316 -0.195332,-0.353466 l -0.222202,-0.0444 c 0.135866,-0.160403 0.349119,-0.377867 0.606664,-0.61805 0.366253,-0.341564 0.816451,-0.740299 1.254152,-1.161686 0.4377,-0.421391 0.864588,-0.8654827 1.189558,-1.3125821 0.324571,-0.446555 0.559596,-0.909193 0.560157,-1.364261 0.0059,-0.586867 -0.154489,-1.6687962 -0.314184,-2.6380811 C 15.930048,4.3325375 15.767407,3.4959227 15.767407,3.4959237 15.680277,3.0419596 15.395735,2.7502696 15.02122,2.6680666 c -0.143311,-0.03146 -0.292854,-0.02688 -0.436137,0.0078 l -0.0186,-0.275435 c -6.88e-4,-0.01049 -0.0022,-0.02068 -0.0041,-0.03101 -0.0991,-0.523241 -0.495231,-0.812673 -0.935369,-0.7792895 -0.413499,0.031362 -0.781466,0.3512445 -0.803083,0.8221635 z m 1.216943,0.05271 0.245973,3.6406041 c 0.02465,0.3529661 0.553802,0.315759 0.529152,-0.03721 l -0.193783,-2.846338 c 0.08597,-0.04117 0.185408,-0.05872 0.285763,-0.03669 0.126839,0.02784 0.285318,0.1252879 0.340022,0.410311 0,0 0.159847,0.831314 0.318317,1.7931731 0.158472,0.9618578 0.313468,2.0739831 0.3085,2.548681 0,0.278416 -0.165831,0.65361 -0.458874,1.0567829 -0.293042,0.403174 -0.701982,0.8311046 -1.129098,1.2423023 -0.427115,0.411197 -0.871727,0.807066 -1.245884,1.156001 -0.364378,0.339814 -0.655517,0.618379 -0.819049,0.889868 L 6.8787239,11.212789 c 0,-1.152941 0.5296678,-2.1387601 0.5296678,-3.2731852 V 6.3515867 c 0,-0.322091 0.1851821,-0.4844211 0.3457061,-0.5214149 0.1294591,-0.02984 0.3472429,0.0041 0.4635359,0.3464808 C 8.5886009,7.1442145 8.9487978,8.1063524 9.2733659,9.0800837 9.3734919,9.4351217 9.90696,9.2589256 9.77565,8.9142016 9.74899,8.8342316 9.71903,8.7557476 9.69194,8.6759726 c 0.05815,-0.03233 0.567184,-0.3175 1.083625,-0.730704 0.273236,-0.218616 0.541238,-0.4658731 0.734302,-0.7400071 0.192681,-0.2735911 0.326255,-0.603214 0.214969,-0.9358601 L 10.880985,3.6349366 c -0.09295,-0.352457 0.07783,-0.5164429 0.234088,-0.5782589 0.169868,-0.0672 0.405524,-0.03921 0.523468,0.177767 l 1.886655,3.770312 c 0.177875,0.3080999 0.234603,0.7064169 0.234603,0.7064169 0.04818,0.3502602 0.573712,0.2779131 0.525534,-0.07235 0,0 -0.05988,-0.46532 -0.292997,-0.8810831 L 13.23014,5.2348358 13.353644,2.4355236 c 0.0095,-0.206837 0.173488,-0.307651 0.31416,-0.318314 0.12123,-0.00919 0.313368,0.040753 0.37307,0.347796 z M 10.543518,4.3196685 C 10.382954,5.0293453 9.747866,5.5568025 8.9963666,5.5568014 8.3832656,5.556087 7.8272107,5.2022883 7.5644538,4.6483305 7.5202398,4.5559316 7.4265969,4.4973566 7.3241618,4.4979537 h -1.92386 L 4.9491798,4.0468188 c -0.1031992,-0.1025602 -0.2698951,-0.1025602 -0.3730932,0 L 4.2345148,4.3904667 3.8908758,4.0468188 c -0.1034222,-0.1038612 -0.2717371,-0.1038612 -0.3751601,0 l -0.335887,0.3400308 -0.347773,-0.342098 c -0.103735,-0.102022 -0.270433,-0.1010349 -0.373093,0.0021 l -0.33951,0.340034 -0.42218,-0.4258141 0.527602,-0.5214149 h 5.0992871 c 0.1024351,6.086e-4 0.196073,-0.05797 0.2402891,-0.150378 0.2626878,-0.5538129 0.818973,-0.907587 1.4319128,-0.908489 0.5823723,-1.7e-5 1.0941933,0.317379 1.3704223,0.7901161 -0.05186,0.1786569 -0.05634,0.3826549 0.0044,0.6095214 z M 8.9963637,3.1750396 c -0.4414308,0 -0.794244,0.3585071 -0.794244,0.7937501 0,0.435242 0.350746,0.79375 0.794244,0.79375 0.4434991,0 0.7932123,-0.358508 0.7932123,-0.79375 0,-0.435243 -0.3517801,-0.7937501 -0.7932123,-0.7937501 z M 11.22149,6.4337557 c 0.03675,0.1078921 0.0013,0.261537 -0.14314,0.466638 -0.144446,0.205101 -0.382127,0.432298 -0.633018,0.633036 C 10.03064,7.8652249 9.655297,8.0849537 9.513114,8.1664657 9.2658527,7.4635876 9.0088137,6.7647487 8.7426397,6.0709866 c 0.08333,0.0093 0.1678871,0.014891 0.253724,0.014991 0.7562013,0 1.4182963,-0.402445 1.7926063,-1.0020085 z M 2.9106017,5.5573227 c -0.119057,-5.292e-4 -0.223722,0.0786 -0.255791,0.1932699 -0.223034,0.8173601 -0.763208,1.4353402 -1.421578,1.6738002 -0.23351011,0.0839 -0.23351011,0.4147669 0,0.4986769 0.6586399,0.2375702 1.199841,0.8546031 1.423645,1.6717326 0.072,0.258091 0.438064,0.258091 0.510032,0 0.2230329,-0.8173605 0.763207,-1.4353396 1.421579,-1.6737995 0.2335231,-0.0839 0.2335231,-0.4147572 0,-0.4986769 C 3.9298566,7.1847658 3.3886268,6.5677328 3.1648427,5.7505926 c -0.0319,-0.114 -0.135874,-0.1928498 -0.254241,-0.1932699 z m 1.5848711,3.7046842 c -0.1183362,5.291e-4 -0.222391,0.07929 -0.25424,0.1932699 -0.140866,0.4976095 -0.4802621,0.8701642 -0.8903602,1.0133752 -0.2334839,0.0839 -0.2334839,0.41425 0,0.49816 0.410278,0.142661 0.7510902,0.516412 0.8924272,1.013892 0.0744,0.253481 0.433597,0.253481 0.507965,0 0.1408658,-0.497621 0.480241,-0.870691 0.89036,-1.013892 0.2371828,-0.0823 0.2371828,-0.417958 0,-0.500227 -0.4102791,-0.142661 -0.749024,-0.5138387 -0.89036,-1.0113082 -0.032,-0.1146799 -0.1367152,-0.19372 -0.255792,-0.1932699 z M 1.9840727,10.58389 c -0.12048,-3.18e-4 -0.2261401,0.08134 -0.2568301,0.197921 -0.1639499,0.629451 -0.5596099,1.097902 -1.02730001,1.275374 -0.22899,0.08786 -0.2265,0.407167 0,0.494027 0.46785001,0.176792 0.86485011,0.644562 1.02937001,1.273824 0.0693,0.26289 0.4422331,0.26289 0.5115811,0 0.163955,-0.629441 0.561679,-1.098432 1.0293659,-1.275891 0.2261632,-0.0877 0.2246821,-0.408056 -0.0031,-0.494027 -0.467847,-0.176789 -0.862783,-0.644036 -1.027298,-1.273307 -0.03051,-0.115912 -0.134988,-0.197429 -0.254758,-0.197921 h -5.213e-4 z" id="path2594" style="color:#000000;font-style:normal;font-variant:normal;font-weight:normal;font-stretch:normal;font-size:medium;line-height:normal;font-family:sans-serif;font-variant-ligatures:normal;font-variant-position:normal;font-variant-caps:normal;font-variant-numeric:normal;font-variant-alternates:normal;font-feature-settings:normal;text-indent:0;text-align:start;text-decoration:none;text-decoration-line:none;text-decoration-style:solid;text-decoration-color:#000000;letter-spacing:normal;word-spacing:normal;text-transform:none;writing-mode:lr-tb;direction:ltr;text-orientation:mixed;dominant-baseline:auto;baseline-shift:baseline;text-anchor:start;white-space:normal;shape-padding:0;clip-rule:nonzero;display:inline;overflow:visible;visibility:visible;opacity:1;isolation:auto;mix-blend-mode:normal;color-interpolation:sRGB;color-interpolation-filters:linearRGB;solid-color:#000000;solid-opacity:1;vector-effect:none;fill:#000000;fill-opacity:1;fill-rule:nonzero;stroke:none;stroke-width:0.529167;stroke-linecap:round;stroke-linejoin:miter;stroke-miterlimit:4;stroke-dasharray:none;stroke-dashoffset:0;stroke-opacity:1;color-rendering:auto;image-rendering:auto;shape-rendering:auto;text-rendering:auto;enable-background:accumulate"/></g></svg>